<?xml version="1.0" standalone="no"?>
<!DOCTYPE svg PUBLIC "-//W3C//DTD SVG 20010904//EN"
 "http://www.w3.org/TR/2001/REC-SVG-20010904/DTD/svg10.dtd">
<svg version="1.0" xmlns="http://www.w3.org/2000/svg"
 width="86.000000pt" height="86.000000pt" viewBox="0 0 86.000000 86.000000"
 preserveAspectRatio="xMidYMid meet">
<metadata>
Created by potrace 1.14, written by Peter Selinger 2001-2017
</metadata>
<g transform="translate(0.000000,86.000000) scale(0.100000,-0.100000)"
fill="#000000" stroke="none">
<path d="M498 633 c-3 -7 -2 -383 1 -405 1 -7 107 29 126 43 6 4 10 71 9 164
l0 158 -65 23 c-75 28 -67 26 -71 17z"/>
<path d="M340 431 l0 -169 47 14 c26 8 51 18 56 23 4 4 8 50 8 102 1 178 5
162 -50 182 -27 9 -51 17 -55 17 -3 0 -6 -76 -6 -169z"/>
<path d="M220 430 l0 -120 36 15 c20 8 37 15 38 15 1 0 2 41 2 90 1 50 0 90
-1 90 -2 0 -19 7 -39 15 l-36 15 0 -120z"/>
</g>
</svg>
