<svg width="17" height="18" viewBox="0 0 17 18" fill="none" xmlns="http://www.w3.org/2000/svg">
<path d="M13.9727 3.73359C16.9404 6.70128 16.9404 11.5129 13.9727 14.4805C11.005 17.4482 6.19345 17.4482 3.22577 14.4805C0.258076 11.5128 0.258076 6.70127 3.22577 3.73359C6.19347 0.765888 11.0051 0.765888 13.9727 3.73359" stroke="#989898" stroke-width="1.3" stroke-linecap="round" stroke-linejoin="round"/>
<path d="M10.2793 6.00427C11.2069 6.93183 11.2069 8.43573 10.2793 9.36329C9.35174 10.2909 7.84785 10.2909 6.92028 9.36329C5.99272 8.43573 5.99272 6.93183 6.92028 6.00427C7.84785 5.0767 9.35174 5.0767 10.2793 6.00427" stroke="#989898" stroke-width="1.3" stroke-linecap="round" stroke-linejoin="round"/>
<path d="M13.4168 14.9827C12.2052 13.7068 10.4962 12.9072 8.59807 12.9072C6.69995 12.9072 4.99096 13.7068 3.7793 14.9835" stroke="#989898" stroke-width="1.3" stroke-linecap="round" stroke-linejoin="round"/>
</svg>
